<svg id="Layer_1" data-name="Layer 1" xmlns="http://www.w3.org/2000/svg" viewBox="0 0 128 128"><title>MEASURE</title><path d="M115,84.079H13a1.75,1.75,0,0,0-1.75,1.75v17.946a1.75,1.75,0,0,0,1.75,1.75H115a1.75,1.75,0,0,0,1.75-1.75V85.829A1.75,1.75,0,0,0,115,84.079Zm-1.75,17.946H102.2V94.116a1.75,1.75,0,0,0-3.5,0v7.909H90.052v-4.98a1.75,1.75,0,0,0-3.5,0v4.98H77.9V94.116a1.75,1.75,0,0,0-3.5,0v7.909H65.75v-4.98a1.75,1.75,0,0,0-3.5,0v4.98H53.6V94.116a1.75,1.75,0,0,0-3.5,0v7.909H41.448v-4.98a1.75,1.75,0,0,0-3.5,0v4.98H29.3V94.116a1.75,1.75,0,0,0-3.5,0v7.909H14.75V87.579h98.5Z"/><path d="M90.042,60.142A10.958,10.958,0,1,0,79.083,49.183,10.971,10.971,0,0,0,90.042,60.142Zm0-18.417a7.458,7.458,0,1,1-7.459,7.458A7.467,7.467,0,0,1,90.042,41.725Z"/><path d="M72.625,69.558H78.25A1.75,1.75,0,0,0,80,67.808V62.183a1.75,1.75,0,0,0-1.75-1.75H72.625a1.75,1.75,0,0,0-1.75,1.75v5.625A1.75,1.75,0,0,0,72.625,69.558Zm1.75-5.625H76.5v2.125H74.375Z"/><path d="M13,72.533H57.917v1.608a1.75,1.75,0,0,0,1.75,1.75H90.042A26.708,26.708,0,1,0,63.333,49.183v11.25H59.667a1.75,1.75,0,0,0-1.75,1.75v1.782H14.75v-.89a1.75,1.75,0,0,0-3.5,0v7.708A1.75,1.75,0,0,0,13,72.533Zm53.833-23.35A23.208,23.208,0,1,1,90.042,72.392H66.833Zm-5.417,14.75h1.917v8.458H61.417V63.933Zm-3.5,3.532v1.568H14.75V67.465Z"/></svg>